# xmcd CD database file
#
# Track frame offsets:
#	150
#	13210
#	26400
#	41800
#	54455
#	69215
#	82502
#	97287
#	109445
#	122475
#	136230
#	148375
#	160435
#	172870
#	187005
#	200922
#	213737
#	226007
#	238260
#	250812
#
# Disc length: 3527 seconds
#
# Revision: 0
# Processed by: cddbd v1.5.2PL0 Copyright (c) Steve Scherf et al.
# Submitted via: CDex 1.99.1
#
DISCID=240dc514
DTITLE=Joe Evans and Arthur McClain - The Two Poor Boys - Joe Evans and Arthur McClain  The Complete Recorded Works 1927 - 1931
DYEAR=1900
DGENRE=Blues
TTITLE0=Little Son Of A Gun (Look What You Done Done)
TTITLE1=Two White Horses In A Line
TTITLE2=John Henry Blues (take 1)
TTITLE3=John Henry Blues (take 3)
TTITLE4=New Huntsville Jail (take 1)
TTITLE5=New Huntsville Jail (take 2)
TTITLE6=Take A Look At That Baby
TTITLE7=Mill Man Blues
TTITLE8=Oh You Son Of A Gun
TTITLE9=Georgia Rose
TTITLE10=Early Some Morning Blues
TTITLE11=Cream And Sugar Blues
TTITLE12=Old Hen Cackle
TTITLE13=Sitting On Top Of The World
TTITLE14=My Baby Got A Yo-Yo
TTITLE15=So Sorry Dear
TTITLE16=Sourwood Mountain
TTITLE17=Down In Black Bottom (take 1)
TTITLE18=Down In Black Bottom (take 2)
TTITLE19=Shook It This Morning Blues
EXTD=
EXTT0=
EXTT1=
EXTT2=
EXTT3=
EXTT4=
EXTT5=
EXTT6=
EXTT7=
EXTT8=
EXTT9=
EXTT10=
EXTT11=
EXTT12=
EXTT13=
EXTT14=
EXTT15=
EXTT16=
EXTT17=
EXTT18=
EXTT19=
PLAYORDER=
